<svg width="47" height="47" viewBox="0 0 47 47" fill="none" xmlns="http://www.w3.org/2000/svg">
<path d="M7.04929 5.84867C7.04586 5.53704 6.91878 5.23954 6.696 5.0216C6.47322 4.80367 6.17299 4.68317 5.86136 4.68659C5.54974 4.69002 5.25223 4.8171 5.0343 5.03988C4.81637 5.26266 4.69586 5.56289 4.69929 5.87452V41.1245C4.69929 41.4361 4.82308 41.735 5.04344 41.9554C5.26379 42.1757 5.56266 42.2995 5.87429 42.2995H41.1243C41.4359 42.2995 41.7348 42.1757 41.9551 41.9554C42.1755 41.735 42.2993 41.4361 42.2993 41.1245C42.2993 40.8129 42.1755 40.514 41.9551 40.2937C41.7348 40.0733 41.4359 39.9495 41.1243 39.9495H7.04929V5.84867ZM37.5993 37.5995V12.9245C37.599 12.7034 37.5363 12.4869 37.4184 12.2998C37.3006 12.1128 37.1323 11.9627 36.933 11.867C36.7337 11.7713 36.5114 11.7338 36.2917 11.7587C36.0721 11.7836 35.8639 11.8701 35.6911 12.008L24.5638 20.9075L17.0321 16.6046C16.8723 16.5135 16.6934 16.4611 16.5098 16.4517C16.3261 16.4423 16.1428 16.4762 15.9746 16.5506L9.39929 19.4716V37.5995H37.5993Z" fill="black"/>
</svg>
